<?xml version="1.0" encoding="UTF-8"?>
<svg xmlns="http://www.w3.org/2000/svg" xmlns:xlink="http://www.w3.org/1999/xlink" version="1.1" width="37px" height="37px" viewBox="0 0 37 37"><defs><rect id="r0" width="1" height="1" fill="#000000"/></defs><rect x="0" y="0" width="37" height="37" fill="#fefefe"/><use x="4" y="4" xlink:href="#r0"/><use x="5" y="4" xlink:href="#r0"/><use x="6" y="4" xlink:href="#r0"/><use x="7" y="4" xlink:href="#r0"/><use x="8" y="4" xlink:href="#r0"/><use x="9" y="4" xlink:href="#r0"/><use x="10" y="4" xlink:href="#r0"/><use x="14" y="4" xlink:href="#r0"/><use x="16" y="4" xlink:href="#r0"/><use x="20" y="4" xlink:href="#r0"/><use x="21" y="4" xlink:href="#r0"/><use x="22" y="4" xlink:href="#r0"/><use x="23" y="4" xlink:href="#r0"/><use x="26" y="4" xlink:href="#r0"/><use x="27" y="4" xlink:href="#r0"/><use x="28" y="4" xlink:href="#r0"/><use x="29" y="4" xlink:href="#r0"/><use x="30" y="4" xlink:href="#r0"/><use x="31" y="4" xlink:href="#r0"/><use x="32" y="4" xlink:href="#r0"/><use x="4" y="5" xlink:href="#r0"/><use x="10" y="5" xlink:href="#r0"/><use x="12" y="5" xlink:href="#r0"/><use x="14" y="5" xlink:href="#r0"/><use x="19" y="5" xlink:href="#r0"/><use x="20" y="5" xlink:href="#r0"/><use x="21" y="5" xlink:href="#r0"/><use x="24" y="5" xlink:href="#r0"/><use x="26" y="5" xlink:href="#r0"/><use x="32" y="5" xlink:href="#r0"/><use x="4" y="6" xlink:href="#r0"/><use x="6" y="6" xlink:href="#r0"/><use x="7" y="6" xlink:href="#r0"/><use x="8" y="6" xlink:href="#r0"/><use x="10" y="6" xlink:href="#r0"/><use x="16" y="6" xlink:href="#r0"/><use x="18" y="6" xlink:href="#r0"/><use x="20" y="6" xlink:href="#r0"/><use x="26" y="6" xlink:href="#r0"/><use x="28" y="6" xlink:href="#r0"/><use x="29" y="6" xlink:href="#r0"/><use x="30" y="6" xlink:href="#r0"/><use x="32" y="6" xlink:href="#r0"/><use x="4" y="7" xlink:href="#r0"/><use x="6" y="7" xlink:href="#r0"/><use x="7" y="7" xlink:href="#r0"/><use x="8" y="7" xlink:href="#r0"/><use x="10" y="7" xlink:href="#r0"/><use x="12" y="7" xlink:href="#r0"/><use x="13" y="7" xlink:href="#r0"/><use x="14" y="7" xlink:href="#r0"/><use x="16" y="7" xlink:href="#r0"/><use x="17" y="7" xlink:href="#r0"/><use x="18" y="7" xlink:href="#r0"/><use x="21" y="7" xlink:href="#r0"/><use x="26" y="7" xlink:href="#r0"/><use x="28" y="7" xlink:href="#r0"/><use x="29" y="7" xlink:href="#r0"/><use x="30" y="7" xlink:href="#r0"/><use x="32" y="7" xlink:href="#r0"/><use x="4" y="8" xlink:href="#r0"/><use x="6" y="8" xlink:href="#r0"/><use x="7" y="8" xlink:href="#r0"/><use x="8" y="8" xlink:href="#r0"/><use x="10" y="8" xlink:href="#r0"/><use x="13" y="8" xlink:href="#r0"/><use x="20" y="8" xlink:href="#r0"/><use x="23" y="8" xlink:href="#r0"/><use x="24" y="8" xlink:href="#r0"/><use x="26" y="8" xlink:href="#r0"/><use x="28" y="8" xlink:href="#r0"/><use x="29" y="8" xlink:href="#r0"/><use x="30" y="8" xlink:href="#r0"/><use x="32" y="8" xlink:href="#r0"/><use x="4" y="9" xlink:href="#r0"/><use x="10" y="9" xlink:href="#r0"/><use x="12" y="9" xlink:href="#r0"/><use x="13" y="9" xlink:href="#r0"/><use x="15" y="9" xlink:href="#r0"/><use x="16" y="9" xlink:href="#r0"/><use x="18" y="9" xlink:href="#r0"/><use x="19" y="9" xlink:href="#r0"/><use x="22" y="9" xlink:href="#r0"/><use x="24" y="9" xlink:href="#r0"/><use x="26" y="9" xlink:href="#r0"/><use x="32" y="9" xlink:href="#r0"/><use x="4" y="10" xlink:href="#r0"/><use x="5" y="10" xlink:href="#r0"/><use x="6" y="10" xlink:href="#r0"/><use x="7" y="10" xlink:href="#r0"/><use x="8" y="10" xlink:href="#r0"/><use x="9" y="10" xlink:href="#r0"/><use x="10" y="10" xlink:href="#r0"/><use x="12" y="10" xlink:href="#r0"/><use x="14" y="10" xlink:href="#r0"/><use x="16" y="10" xlink:href="#r0"/><use x="18" y="10" xlink:href="#r0"/><use x="20" y="10" xlink:href="#r0"/><use x="22" y="10" xlink:href="#r0"/><use x="24" y="10" xlink:href="#r0"/><use x="26" y="10" xlink:href="#r0"/><use x="27" y="10" xlink:href="#r0"/><use x="28" y="10" xlink:href="#r0"/><use x="29" y="10" xlink:href="#r0"/><use x="30" y="10" xlink:href="#r0"/><use x="31" y="10" xlink:href="#r0"/><use x="32" y="10" xlink:href="#r0"/><use x="13" y="11" xlink:href="#r0"/><use x="14" y="11" xlink:href="#r0"/><use x="15" y="11" xlink:href="#r0"/><use x="19" y="11" xlink:href="#r0"/><use x="20" y="11" xlink:href="#r0"/><use x="22" y="11" xlink:href="#r0"/><use x="23" y="11" xlink:href="#r0"/><use x="4" y="12" xlink:href="#r0"/><use x="5" y="12" xlink:href="#r0"/><use x="6" y="12" xlink:href="#r0"/><use x="7" y="12" xlink:href="#r0"/><use x="8" y="12" xlink:href="#r0"/><use x="10" y="12" xlink:href="#r0"/><use x="11" y="12" xlink:href="#r0"/><use x="12" y="12" xlink:href="#r0"/><use x="13" y="12" xlink:href="#r0"/><use x="15" y="12" xlink:href="#r0"/><use x="17" y="12" xlink:href="#r0"/><use x="21" y="12" xlink:href="#r0"/><use x="24" y="12" xlink:href="#r0"/><use x="25" y="12" xlink:href="#r0"/><use x="27" y="12" xlink:href="#r0"/><use x="29" y="12" xlink:href="#r0"/><use x="31" y="12" xlink:href="#r0"/><use x="4" y="13" xlink:href="#r0"/><use x="6" y="13" xlink:href="#r0"/><use x="7" y="13" xlink:href="#r0"/><use x="8" y="13" xlink:href="#r0"/><use x="12" y="13" xlink:href="#r0"/><use x="14" y="13" xlink:href="#r0"/><use x="16" y="13" xlink:href="#r0"/><use x="17" y="13" xlink:href="#r0"/><use x="19" y="13" xlink:href="#r0"/><use x="20" y="13" xlink:href="#r0"/><use x="23" y="13" xlink:href="#r0"/><use x="24" y="13" xlink:href="#r0"/><use x="25" y="13" xlink:href="#r0"/><use x="26" y="13" xlink:href="#r0"/><use x="28" y="13" xlink:href="#r0"/><use x="32" y="13" xlink:href="#r0"/><use x="8" y="14" xlink:href="#r0"/><use x="9" y="14" xlink:href="#r0"/><use x="10" y="14" xlink:href="#r0"/><use x="11" y="14" xlink:href="#r0"/><use x="12" y="14" xlink:href="#r0"/><use x="14" y="14" xlink:href="#r0"/><use x="17" y="14" xlink:href="#r0"/><use x="18" y="14" xlink:href="#r0"/><use x="19" y="14" xlink:href="#r0"/><use x="24" y="14" xlink:href="#r0"/><use x="26" y="14" xlink:href="#r0"/><use x="27" y="14" xlink:href="#r0"/><use x="4" y="15" xlink:href="#r0"/><use x="6" y="15" xlink:href="#r0"/><use x="9" y="15" xlink:href="#r0"/><use x="16" y="15" xlink:href="#r0"/><use x="18" y="15" xlink:href="#r0"/><use x="20" y="15" xlink:href="#r0"/><use x="25" y="15" xlink:href="#r0"/><use x="26" y="15" xlink:href="#r0"/><use x="31" y="15" xlink:href="#r0"/><use x="4" y="16" xlink:href="#r0"/><use x="10" y="16" xlink:href="#r0"/><use x="11" y="16" xlink:href="#r0"/><use x="13" y="16" xlink:href="#r0"/><use x="14" y="16" xlink:href="#r0"/><use x="16" y="16" xlink:href="#r0"/><use x="17" y="16" xlink:href="#r0"/><use x="21" y="16" xlink:href="#r0"/><use x="23" y="16" xlink:href="#r0"/><use x="29" y="16" xlink:href="#r0"/><use x="30" y="16" xlink:href="#r0"/><use x="5" y="17" xlink:href="#r0"/><use x="6" y="17" xlink:href="#r0"/><use x="9" y="17" xlink:href="#r0"/><use x="11" y="17" xlink:href="#r0"/><use x="12" y="17" xlink:href="#r0"/><use x="18" y="17" xlink:href="#r0"/><use x="20" y="17" xlink:href="#r0"/><use x="22" y="17" xlink:href="#r0"/><use x="23" y="17" xlink:href="#r0"/><use x="24" y="17" xlink:href="#r0"/><use x="25" y="17" xlink:href="#r0"/><use x="26" y="17" xlink:href="#r0"/><use x="27" y="17" xlink:href="#r0"/><use x="28" y="17" xlink:href="#r0"/><use x="30" y="17" xlink:href="#r0"/><use x="32" y="17" xlink:href="#r0"/><use x="4" y="18" xlink:href="#r0"/><use x="5" y="18" xlink:href="#r0"/><use x="8" y="18" xlink:href="#r0"/><use x="9" y="18" xlink:href="#r0"/><use x="10" y="18" xlink:href="#r0"/><use x="12" y="18" xlink:href="#r0"/><use x="14" y="18" xlink:href="#r0"/><use x="15" y="18" xlink:href="#r0"/><use x="16" y="18" xlink:href="#r0"/><use x="17" y="18" xlink:href="#r0"/><use x="19" y="18" xlink:href="#r0"/><use x="20" y="18" xlink:href="#r0"/><use x="21" y="18" xlink:href="#r0"/><use x="22" y="18" xlink:href="#r0"/><use x="24" y="18" xlink:href="#r0"/><use x="25" y="18" xlink:href="#r0"/><use x="27" y="18" xlink:href="#r0"/><use x="30" y="18" xlink:href="#r0"/><use x="5" y="19" xlink:href="#r0"/><use x="7" y="19" xlink:href="#r0"/><use x="11" y="19" xlink:href="#r0"/><use x="13" y="19" xlink:href="#r0"/><use x="15" y="19" xlink:href="#r0"/><use x="20" y="19" xlink:href="#r0"/><use x="22" y="19" xlink:href="#r0"/><use x="26" y="19" xlink:href="#r0"/><use x="28" y="19" xlink:href="#r0"/><use x="31" y="19" xlink:href="#r0"/><use x="4" y="20" xlink:href="#r0"/><use x="5" y="20" xlink:href="#r0"/><use x="7" y="20" xlink:href="#r0"/><use x="8" y="20" xlink:href="#r0"/><use x="9" y="20" xlink:href="#r0"/><use x="10" y="20" xlink:href="#r0"/><use x="12" y="20" xlink:href="#r0"/><use x="15" y="20" xlink:href="#r0"/><use x="17" y="20" xlink:href="#r0"/><use x="19" y="20" xlink:href="#r0"/><use x="20" y="20" xlink:href="#r0"/><use x="21" y="20" xlink:href="#r0"/><use x="30" y="20" xlink:href="#r0"/><use x="4" y="21" xlink:href="#r0"/><use x="5" y="21" xlink:href="#r0"/><use x="7" y="21" xlink:href="#r0"/><use x="13" y="21" xlink:href="#r0"/><use x="14" y="21" xlink:href="#r0"/><use x="16" y="21" xlink:href="#r0"/><use x="18" y="21" xlink:href="#r0"/><use x="20" y="21" xlink:href="#r0"/><use x="21" y="21" xlink:href="#r0"/><use x="22" y="21" xlink:href="#r0"/><use x="23" y="21" xlink:href="#r0"/><use x="24" y="21" xlink:href="#r0"/><use x="25" y="21" xlink:href="#r0"/><use x="26" y="21" xlink:href="#r0"/><use x="27" y="21" xlink:href="#r0"/><use x="28" y="21" xlink:href="#r0"/><use x="29" y="21" xlink:href="#r0"/><use x="30" y="21" xlink:href="#r0"/><use x="32" y="21" xlink:href="#r0"/><use x="4" y="22" xlink:href="#r0"/><use x="7" y="22" xlink:href="#r0"/><use x="10" y="22" xlink:href="#r0"/><use x="14" y="22" xlink:href="#r0"/><use x="17" y="22" xlink:href="#r0"/><use x="19" y="22" xlink:href="#r0"/><use x="20" y="22" xlink:href="#r0"/><use x="24" y="22" xlink:href="#r0"/><use x="26" y="22" xlink:href="#r0"/><use x="27" y="22" xlink:href="#r0"/><use x="28" y="22" xlink:href="#r0"/><use x="29" y="22" xlink:href="#r0"/><use x="30" y="22" xlink:href="#r0"/><use x="4" y="23" xlink:href="#r0"/><use x="6" y="23" xlink:href="#r0"/><use x="11" y="23" xlink:href="#r0"/><use x="16" y="23" xlink:href="#r0"/><use x="18" y="23" xlink:href="#r0"/><use x="20" y="23" xlink:href="#r0"/><use x="22" y="23" xlink:href="#r0"/><use x="23" y="23" xlink:href="#r0"/><use x="26" y="23" xlink:href="#r0"/><use x="28" y="23" xlink:href="#r0"/><use x="31" y="23" xlink:href="#r0"/><use x="4" y="24" xlink:href="#r0"/><use x="6" y="24" xlink:href="#r0"/><use x="8" y="24" xlink:href="#r0"/><use x="9" y="24" xlink:href="#r0"/><use x="10" y="24" xlink:href="#r0"/><use x="12" y="24" xlink:href="#r0"/><use x="16" y="24" xlink:href="#r0"/><use x="17" y="24" xlink:href="#r0"/><use x="21" y="24" xlink:href="#r0"/><use x="23" y="24" xlink:href="#r0"/><use x="24" y="24" xlink:href="#r0"/><use x="25" y="24" xlink:href="#r0"/><use x="26" y="24" xlink:href="#r0"/><use x="27" y="24" xlink:href="#r0"/><use x="28" y="24" xlink:href="#r0"/><use x="30" y="24" xlink:href="#r0"/><use x="31" y="24" xlink:href="#r0"/><use x="32" y="24" xlink:href="#r0"/><use x="12" y="25" xlink:href="#r0"/><use x="14" y="25" xlink:href="#r0"/><use x="18" y="25" xlink:href="#r0"/><use x="20" y="25" xlink:href="#r0"/><use x="21" y="25" xlink:href="#r0"/><use x="22" y="25" xlink:href="#r0"/><use x="24" y="25" xlink:href="#r0"/><use x="28" y="25" xlink:href="#r0"/><use x="29" y="25" xlink:href="#r0"/><use x="30" y="25" xlink:href="#r0"/><use x="31" y="25" xlink:href="#r0"/><use x="32" y="25" xlink:href="#r0"/><use x="4" y="26" xlink:href="#r0"/><use x="5" y="26" xlink:href="#r0"/><use x="6" y="26" xlink:href="#r0"/><use x="7" y="26" xlink:href="#r0"/><use x="8" y="26" xlink:href="#r0"/><use x="9" y="26" xlink:href="#r0"/><use x="10" y="26" xlink:href="#r0"/><use x="12" y="26" xlink:href="#r0"/><use x="13" y="26" xlink:href="#r0"/><use x="15" y="26" xlink:href="#r0"/><use x="16" y="26" xlink:href="#r0"/><use x="18" y="26" xlink:href="#r0"/><use x="19" y="26" xlink:href="#r0"/><use x="22" y="26" xlink:href="#r0"/><use x="23" y="26" xlink:href="#r0"/><use x="24" y="26" xlink:href="#r0"/><use x="26" y="26" xlink:href="#r0"/><use x="28" y="26" xlink:href="#r0"/><use x="29" y="26" xlink:href="#r0"/><use x="30" y="26" xlink:href="#r0"/><use x="4" y="27" xlink:href="#r0"/><use x="10" y="27" xlink:href="#r0"/><use x="14" y="27" xlink:href="#r0"/><use x="15" y="27" xlink:href="#r0"/><use x="19" y="27" xlink:href="#r0"/><use x="20" y="27" xlink:href="#r0"/><use x="23" y="27" xlink:href="#r0"/><use x="24" y="27" xlink:href="#r0"/><use x="28" y="27" xlink:href="#r0"/><use x="29" y="27" xlink:href="#r0"/><use x="31" y="27" xlink:href="#r0"/><use x="32" y="27" xlink:href="#r0"/><use x="4" y="28" xlink:href="#r0"/><use x="6" y="28" xlink:href="#r0"/><use x="7" y="28" xlink:href="#r0"/><use x="8" y="28" xlink:href="#r0"/><use x="10" y="28" xlink:href="#r0"/><use x="12" y="28" xlink:href="#r0"/><use x="13" y="28" xlink:href="#r0"/><use x="14" y="28" xlink:href="#r0"/><use x="15" y="28" xlink:href="#r0"/><use x="19" y="28" xlink:href="#r0"/><use x="21" y="28" xlink:href="#r0"/><use x="24" y="28" xlink:href="#r0"/><use x="25" y="28" xlink:href="#r0"/><use x="26" y="28" xlink:href="#r0"/><use x="27" y="28" xlink:href="#r0"/><use x="28" y="28" xlink:href="#r0"/><use x="30" y="28" xlink:href="#r0"/><use x="31" y="28" xlink:href="#r0"/><use x="32" y="28" xlink:href="#r0"/><use x="4" y="29" xlink:href="#r0"/><use x="6" y="29" xlink:href="#r0"/><use x="7" y="29" xlink:href="#r0"/><use x="8" y="29" xlink:href="#r0"/><use x="10" y="29" xlink:href="#r0"/><use x="12" y="29" xlink:href="#r0"/><use x="16" y="29" xlink:href="#r0"/><use x="17" y="29" xlink:href="#r0"/><use x="20" y="29" xlink:href="#r0"/><use x="22" y="29" xlink:href="#r0"/><use x="23" y="29" xlink:href="#r0"/><use x="24" y="29" xlink:href="#r0"/><use x="27" y="29" xlink:href="#r0"/><use x="30" y="29" xlink:href="#r0"/><use x="31" y="29" xlink:href="#r0"/><use x="32" y="29" xlink:href="#r0"/><use x="4" y="30" xlink:href="#r0"/><use x="6" y="30" xlink:href="#r0"/><use x="7" y="30" xlink:href="#r0"/><use x="8" y="30" xlink:href="#r0"/><use x="10" y="30" xlink:href="#r0"/><use x="12" y="30" xlink:href="#r0"/><use x="14" y="30" xlink:href="#r0"/><use x="17" y="30" xlink:href="#r0"/><use x="18" y="30" xlink:href="#r0"/><use x="19" y="30" xlink:href="#r0"/><use x="20" y="30" xlink:href="#r0"/><use x="21" y="30" xlink:href="#r0"/><use x="22" y="30" xlink:href="#r0"/><use x="23" y="30" xlink:href="#r0"/><use x="24" y="30" xlink:href="#r0"/><use x="25" y="30" xlink:href="#r0"/><use x="26" y="30" xlink:href="#r0"/><use x="27" y="30" xlink:href="#r0"/><use x="28" y="30" xlink:href="#r0"/><use x="30" y="30" xlink:href="#r0"/><use x="31" y="30" xlink:href="#r0"/><use x="4" y="31" xlink:href="#r0"/><use x="10" y="31" xlink:href="#r0"/><use x="12" y="31" xlink:href="#r0"/><use x="13" y="31" xlink:href="#r0"/><use x="14" y="31" xlink:href="#r0"/><use x="16" y="31" xlink:href="#r0"/><use x="17" y="31" xlink:href="#r0"/><use x="20" y="31" xlink:href="#r0"/><use x="24" y="31" xlink:href="#r0"/><use x="26" y="31" xlink:href="#r0"/><use x="28" y="31" xlink:href="#r0"/><use x="29" y="31" xlink:href="#r0"/><use x="31" y="31" xlink:href="#r0"/><use x="4" y="32" xlink:href="#r0"/><use x="5" y="32" xlink:href="#r0"/><use x="6" y="32" xlink:href="#r0"/><use x="7" y="32" xlink:href="#r0"/><use x="8" y="32" xlink:href="#r0"/><use x="9" y="32" xlink:href="#r0"/><use x="10" y="32" xlink:href="#r0"/><use x="12" y="32" xlink:href="#r0"/><use x="16" y="32" xlink:href="#r0"/><use x="18" y="32" xlink:href="#r0"/><use x="21" y="32" xlink:href="#r0"/><use x="22" y="32" xlink:href="#r0"/><use x="30" y="32" xlink:href="#r0"/></svg>
